<svg xmlns="http://www.w3.org/2000/svg" viewBox="0 0 1600 400" preserveAspectRatio="none">
  <path d="M0,300 C200,200 400,350 600,250 C800,150 1000,300 1200,200 C1400,100 1600,250 1600,250 L1600,400 L0,400 Z" fill="#cce4f6"/>
  <path d="M0,320 C200,220 400,360 600,260 C800,160 1000,320 1200,220 C1400,120 1600,270 1600,270 L1600,400 L0,400 Z" fill="#b2d4ee"/>
  <path d="M0,340 C200,240 400,380 600,280 C800,180 1000,340 1200,240 C1400,140 1600,290 1600,290 L1600,400 L0,400 Z" fill="#99c3e6"/>
</svg>
